<svg width="325" height="185" viewBox="0 0 325 185" fill="none" xmlns="http://www.w3.org/2000/svg">
<path d="M264.208 174.385H256.208L254.992 178.065H248.4L256.624 155.505H263.856L272.048 178.065H265.424L264.208 174.385ZM262.64 169.585L260.208 162.289L257.808 169.585H262.64ZM291.916 163.025C291.916 164.391 291.596 165.639 290.956 166.769C290.337 167.879 289.388 168.775 288.108 169.457C286.849 170.119 285.303 170.449 283.468 170.449H280.364V178.065H274.092V155.505H283.468C285.281 155.505 286.817 155.825 288.076 156.465C289.356 157.105 290.316 157.991 290.956 159.121C291.596 160.252 291.916 161.553 291.916 163.025ZM282.86 165.457C284.631 165.457 285.516 164.647 285.516 163.025C285.516 161.383 284.631 160.561 282.86 160.561H280.364V165.457H282.86ZM312.26 163.025C312.26 164.391 311.94 165.639 311.3 166.769C310.681 167.879 309.732 168.775 308.452 169.457C307.193 170.119 305.646 170.449 303.812 170.449H300.708V178.065H294.436V155.505H303.812C305.625 155.505 307.161 155.825 308.42 156.465C309.7 157.105 310.66 157.991 311.3 159.121C311.94 160.252 312.26 161.553 312.26 163.025ZM303.204 165.457C304.974 165.457 305.86 164.647 305.86 163.025C305.86 161.383 304.974 160.561 303.204 160.561H300.708V165.457H303.204Z" fill="#FF5733"/>
<path d="M105.679 81.1954V91.1794H87.631V99.1154H100.943V108.651H87.631V126.315H75.087V81.1954H105.679ZM117.298 87.0834C115.079 87.0834 113.287 86.4861 111.922 85.2914C110.599 84.0541 109.938 82.5181 109.938 80.6834C109.938 78.8061 110.599 77.2488 111.922 76.0114C113.287 74.7741 115.079 74.1554 117.298 74.1554C119.474 74.1554 121.223 74.7741 122.546 76.0114C123.911 77.2488 124.594 78.8061 124.594 80.6834C124.594 82.5181 123.911 84.0541 122.546 85.2914C121.223 86.4861 119.474 87.0834 117.298 87.0834ZM123.506 90.4114V126.315H110.962V90.4114H123.506ZM151.833 115.627V126.315H146.393C137.22 126.315 132.633 121.771 132.633 112.683V100.843H128.217V90.4114H132.633V81.7074H145.241V90.4114H151.769V100.843H145.241V112.875C145.241 113.857 145.455 114.561 145.881 114.987C146.351 115.414 147.119 115.627 148.185 115.627H151.833ZM170.131 116.715H184.147V126.315H157.587V81.1954H170.131V116.715ZM205.728 126.763C202.144 126.763 198.923 126.017 196.064 124.523C193.248 123.03 191.03 120.897 189.408 118.123C187.787 115.35 186.976 112.086 186.976 108.331C186.976 104.619 187.787 101.377 189.408 98.6034C191.072 95.8301 193.312 93.6968 196.128 92.2034C198.987 90.7101 202.208 89.9634 205.792 89.9634C209.376 89.9634 212.576 90.7101 215.392 92.2034C218.251 93.6968 220.491 95.8301 222.112 98.6034C223.776 101.377 224.608 104.619 224.608 108.331C224.608 112.043 223.776 115.307 222.112 118.123C220.491 120.897 218.251 123.03 215.392 124.523C212.534 126.017 209.312 126.763 205.728 126.763ZM205.728 115.883C207.478 115.883 208.928 115.243 210.08 113.963C211.275 112.641 211.872 110.763 211.872 108.331C211.872 105.899 211.275 104.043 210.08 102.763C208.928 101.483 207.499 100.843 205.792 100.843C204.086 100.843 202.656 101.483 201.504 102.763C200.352 104.043 199.776 105.899 199.776 108.331C199.776 110.806 200.331 112.683 201.44 113.963C202.55 115.243 203.979 115.883 205.728 115.883ZM242.96 89.9634C245.392 89.9634 247.504 90.4541 249.296 91.4354C251.131 92.4168 252.539 93.7394 253.52 95.4034V90.4114H266.064V125.931C266.064 129.302 265.424 132.331 264.144 135.019C262.864 137.75 260.859 139.926 258.128 141.547C255.44 143.169 252.027 143.979 247.888 143.979C242.341 143.979 237.904 142.678 234.576 140.075C231.248 137.473 229.349 133.931 228.88 129.451H241.232C241.488 130.603 242.128 131.499 243.152 132.139C244.176 132.779 245.499 133.099 247.12 133.099C251.387 133.099 253.52 130.71 253.52 125.931V121.323C252.539 122.987 251.131 124.31 249.296 125.291C247.504 126.273 245.392 126.763 242.96 126.763C240.101 126.763 237.499 126.017 235.152 124.523C232.848 123.03 231.013 120.897 229.648 118.123C228.325 115.307 227.664 112.043 227.664 108.331C227.664 104.619 228.325 101.377 229.648 98.6034C231.013 95.8301 232.848 93.6968 235.152 92.2034C237.499 90.7101 240.101 89.9634 242.96 89.9634ZM253.52 108.331C253.52 106.027 252.88 104.214 251.6 102.891C250.363 101.569 248.827 100.907 246.992 100.907C245.115 100.907 243.557 101.569 242.32 102.891C241.083 104.171 240.464 105.985 240.464 108.331C240.464 110.635 241.083 112.47 242.32 113.835C243.557 115.158 245.115 115.819 246.992 115.819C248.827 115.819 250.363 115.158 251.6 113.835C252.88 112.513 253.52 110.678 253.52 108.331Z" fill="white"/>
<mask id="mask0_2_661" style="mask-type:luminance" maskUnits="userSpaceOnUse" x="0" y="0" width="117" height="117">
<path d="M69.1405 0.000112232L0 47.8526L47.8525 116.993L116.993 69.1406L69.1405 0.000112232Z" fill="white"/>
</mask>
<g mask="url(#mask0_2_661)">
<path d="M29.688 78.4351L32.5688 76.4412" stroke="#FF5733" stroke-width="5" stroke-linecap="round" stroke-linejoin="round"/>
<path d="M33.236 58.9363L27.4743 62.924C26.7102 63.4528 26.1875 64.2634 26.0212 65.1776C25.8548 66.0918 26.0585 67.0346 26.5873 67.7987L38.5504 85.0838C39.0792 85.8479 39.8899 86.3706 40.8041 86.5369C41.7182 86.7032 42.6611 86.4996 43.4251 85.9708L49.1868 81.9831" stroke="#FF5733" stroke-width="5" stroke-linecap="round" stroke-linejoin="round"/>
<path d="M31.2421 56.0554L51.1807 84.864C51.7095 85.628 52.5201 86.1507 53.4343 86.317C54.3485 86.4834 55.2913 86.2798 56.0554 85.7509L58.9362 83.7571C59.7003 83.2283 60.223 82.4176 60.3893 81.5034C60.5557 80.5893 60.352 79.6464 59.8232 78.8824L39.8847 50.0738C39.3559 49.3098 38.5452 48.7871 37.631 48.6207C36.7168 48.4544 35.774 48.658 35.01 49.1868L32.1291 51.1807C31.3651 51.7095 30.8424 52.5202 30.676 53.4343C30.5097 54.3485 30.7133 55.2913 31.2421 56.0554Z" stroke="#FF5733" stroke-width="5" stroke-linecap="round" stroke-linejoin="round"/>
<path d="M49.8539 64.4781L67.139 52.515" stroke="#FF5733" stroke-width="5" stroke-linecap="round" stroke-linejoin="round"/>
<path d="M57.1698 38.1107L77.1084 66.9192C77.6372 67.6833 78.4479 68.206 79.362 68.3723C80.2762 68.5387 81.219 68.3351 81.9831 67.8062L84.8639 65.8124C85.628 65.2836 86.1507 64.4729 86.317 63.5587C86.4834 62.6446 86.2798 61.7017 85.7509 60.9377L65.8124 32.1291C65.2836 31.3651 64.4729 30.8424 63.5587 30.676C62.6446 30.5097 61.7016 30.7133 60.9376 31.2421L58.0568 33.236C57.2928 33.7648 56.7701 34.5755 56.6037 35.4896C56.4374 36.4038 56.641 37.3466 57.1698 38.1107Z" stroke="#FF5733" stroke-width="5" stroke-linecap="round" stroke-linejoin="round"/>
<path d="M67.8062 35.01L73.568 31.0223C74.332 30.4935 75.2748 30.2898 76.189 30.4562C77.1032 30.6225 77.9139 31.1452 78.4427 31.9093L90.4058 49.1944C90.9346 49.9584 91.1382 50.9013 90.9719 51.8155C90.8055 52.7296 90.2829 53.5403 89.5188 54.0691L83.7571 58.0568" stroke="#FF5733" stroke-width="5" stroke-linecap="round" stroke-linejoin="round"/>
<path d="M87.3051 38.558L84.4242 40.5518" stroke="#FF5733" stroke-width="5" stroke-linecap="round" stroke-linejoin="round"/>
</g>
</svg>
