<svg width="64" height="64" viewBox="0 0 64 64" fill="none" xmlns="http://www.w3.org/2000/svg">
<path d="M13.3333 21.3333H50.6667V16H13.3333V21.3333ZM13.3333 58.6667C11.8667 58.6667 10.6116 58.1449 9.568 57.1013C8.52444 56.0578 8.00178 54.8018 8 53.3333V16C8 14.5333 8.52267 13.2782 9.568 12.2347C10.6133 11.1911 11.8684 10.6684 13.3333 10.6667H16V5.33333H21.3333V10.6667H42.6667V5.33333H48V10.6667H50.6667C52.1333 10.6667 53.3893 11.1893 54.4347 12.2347C55.48 13.28 56.0018 14.5351 56 16V31.1333C55.1556 30.7333 54.2889 30.4 53.4 30.1333C52.5111 29.8667 51.6 29.6667 50.6667 29.5333V26.6667H13.3333V53.3333H30.1333C30.4444 54.3111 30.8116 55.2444 31.2347 56.1333C31.6578 57.0222 32.1573 57.8667 32.7333 58.6667H13.3333ZM38.568 57.4347C35.9671 54.8338 34.6667 51.6889 34.6667 48C34.6667 44.3111 35.9671 41.1671 38.568 38.568C41.1689 35.9689 44.3129 34.6684 48 34.6667C51.6871 34.6649 54.832 35.9653 57.4347 38.568C60.0373 41.1707 61.3369 44.3147 61.3333 48C61.3298 51.6853 60.0293 54.8302 57.432 57.4347C54.8347 60.0391 51.6907 61.3387 48 61.3333C44.3093 61.328 41.1653 60.0302 38.568 57.4347ZM52.4667 54.3333L54.3333 52.4667L49.3333 47.4667V40H46.6667V48.5333L52.4667 54.3333Z" fill="white"/>
</svg>
