<svg width="64" height="64" viewBox="0 0 64 64" fill="none" xmlns="http://www.w3.org/2000/svg">
<path d="M32.0002 56L28.1335 52.5333C23.6446 48.4889 19.9335 45 17.0002 42.0667C14.0668 39.1333 11.7335 36.4996 10.0002 34.1653C8.26683 31.8311 7.05616 29.6871 6.36816 27.7333C5.68016 25.7796 5.33527 23.7796 5.3335 21.7333C5.3335 17.5556 6.7335 14.0667 9.5335 11.2667C12.3335 8.46667 15.8224 7.06667 20.0002 7.06667C22.3113 7.06667 24.5113 7.55555 26.6002 8.53333C28.6891 9.51111 30.4891 10.8889 32.0002 12.6667C33.5113 10.8889 35.3113 9.51111 37.4002 8.53333C39.4891 7.55555 41.6891 7.06667 44.0002 7.06667C48.1779 7.06667 51.6668 8.46667 54.4668 11.2667C57.2668 14.0667 58.6668 17.5556 58.6668 21.7333C58.6668 23.7778 58.3228 25.7778 57.6348 27.7333C56.9468 29.6889 55.7353 31.8329 54.0002 34.1653C52.2651 36.4978 49.9317 39.1316 47.0002 42.0667C44.0686 45.0018 40.3575 48.4907 35.8668 52.5333L32.0002 56ZM32.0002 48.8C36.2668 44.9778 39.7779 41.7004 42.5335 38.968C45.2891 36.2356 47.4668 33.8578 49.0668 31.8347C50.6668 29.8116 51.7779 28.0107 52.4002 26.432C53.0224 24.8533 53.3335 23.2871 53.3335 21.7333C53.3335 19.0667 52.4446 16.8444 50.6668 15.0667C48.8891 13.2889 46.6668 12.4 44.0002 12.4C41.9113 12.4 39.9779 12.9884 38.2002 14.1653C36.4224 15.3422 35.2002 16.8427 34.5335 18.6667H29.4668C28.8002 16.8444 27.5779 15.3449 25.8002 14.168C24.0224 12.9911 22.0891 12.4018 20.0002 12.4C17.3335 12.4 15.1113 13.2889 13.3335 15.0667C11.5557 16.8444 10.6668 19.0667 10.6668 21.7333C10.6668 23.2889 10.9779 24.856 11.6002 26.4347C12.2224 28.0133 13.3335 29.8133 14.9335 31.8347C16.5335 33.856 18.7113 36.2338 21.4668 38.968C24.2224 41.7022 27.7335 44.9796 32.0002 48.8Z" fill="white"/>
</svg>
