<svg width="64" height="64" viewBox="0 0 64 64" fill="none" xmlns="http://www.w3.org/2000/svg">
<path d="M7.00008 37.4L2.66675 34.2667L16.0001 12.9333L24.0001 22.2667L34.6667 4.93333L42.6667 16.9333L51.6667 2.66667L56.0001 5.8L42.8001 26.7333L34.8667 14.8L24.7334 31.2667L16.6667 21.8667L7.00008 37.4ZM38.6667 48C40.5334 48 42.1112 47.3556 43.4001 46.0667C44.689 44.7778 45.3334 43.2 45.3334 41.3333C45.3334 39.4667 44.689 37.8889 43.4001 36.6C42.1112 35.3111 40.5334 34.6667 38.6667 34.6667C36.8001 34.6667 35.2223 35.3111 33.9334 36.6C32.6445 37.8889 32.0001 39.4667 32.0001 41.3333C32.0001 43.2 32.6445 44.7778 33.9334 46.0667C35.2223 47.3556 36.8001 48 38.6667 48ZM52.2668 58.6667L45.0667 51.4667C44.1334 52.0889 43.1227 52.5556 42.0347 52.8667C40.9467 53.1778 39.8241 53.3333 38.6667 53.3333C35.3334 53.3333 32.5005 52.1671 30.1681 49.8347C27.8356 47.5022 26.6685 44.6684 26.6667 41.3333C26.665 37.9982 27.8321 35.1653 30.1681 32.8347C32.5041 30.504 35.337 29.3369 38.6667 29.3333C41.9965 29.3298 44.8303 30.4969 47.1681 32.8347C49.5059 35.1724 50.6721 38.0053 50.6667 41.3333C50.6667 42.4889 50.5112 43.6116 50.2001 44.7013C49.889 45.7911 49.4223 46.8018 48.8001 47.7333L56.0001 54.9333L52.2668 58.6667Z" fill="white"/>
</svg>
